<mxfile host="app.diagrams.net" modified="2023-03-23T16:07:59.567Z" agent="5.0 (Macintosh; Intel Mac OS X 10_15_7) AppleWebKit/537.36 (KHTML, like Gecko) Chrome/111.0.0.0 Safari/537.36" etag="9OyEInPxVc-MSdf0IXtn" version="21.0.10" type="github" pages="2">
  <diagram name="Page-1" id="_BRnNYzpPHBFSV-FwYl7">
    <mxGraphModel dx="1194" dy="650" grid="1" gridSize="10" guides="1" tooltips="1" connect="1" arrows="1" fold="1" page="1" pageScale="1" pageWidth="827" pageHeight="1169" math="0" shadow="0">
      <root>
        <mxCell id="0" />
        <mxCell id="1" parent="0" />
        <mxCell id="YFPhY8BhYTOKruBvBXty-1" value="" style="whiteSpace=wrap;html=1;aspect=fixed;" parent="1" vertex="1">
          <mxGeometry x="110" y="90" width="640" height="640" as="geometry" />
        </mxCell>
        <mxCell id="YFPhY8BhYTOKruBvBXty-2" value="Actor" style="shape=umlActor;verticalLabelPosition=bottom;verticalAlign=top;html=1;outlineConnect=0;fillColor=#99FF99;" parent="1" vertex="1">
          <mxGeometry x="30" y="230" width="30" height="60" as="geometry" />
        </mxCell>
        <mxCell id="YFPhY8BhYTOKruBvBXty-3" value="Actor" style="shape=umlActor;verticalLabelPosition=bottom;verticalAlign=top;html=1;outlineConnect=0;fillColor=#FFE6CC;" parent="1" vertex="1">
          <mxGeometry x="30" y="500" width="30" height="60" as="geometry" />
        </mxCell>
        <mxCell id="YFPhY8BhYTOKruBvBXty-4" value="Feide" style="shape=umlActor;verticalLabelPosition=bottom;verticalAlign=top;html=1;outlineConnect=0;" parent="1" vertex="1">
          <mxGeometry x="780" y="100" width="30" height="60" as="geometry" />
        </mxCell>
        <mxCell id="YFPhY8BhYTOKruBvBXty-5" value="Crook" style="shape=umlActor;verticalLabelPosition=bottom;verticalAlign=top;html=1;outlineConnect=0;fillColor=#000000;" parent="1" vertex="1">
          <mxGeometry x="780" y="200" width="30" height="60" as="geometry" />
        </mxCell>
        <mxCell id="YFPhY8BhYTOKruBvBXty-8" value="BB: Emnerom PROG1004" style="text;html=1;strokeColor=none;fillColor=none;align=center;verticalAlign=middle;whiteSpace=wrap;rounded=0;" parent="1" vertex="1">
          <mxGeometry x="110" y="100" width="170" height="30" as="geometry" />
        </mxCell>
        <mxCell id="YFPhY8BhYTOKruBvBXty-9" value="Logge inn" style="ellipse;whiteSpace=wrap;html=1;fillColor=#FFE6F0;" parent="1" vertex="1">
          <mxGeometry x="280" y="120" width="110" height="30" as="geometry" />
        </mxCell>
        <mxCell id="YFPhY8BhYTOKruBvBXty-10" value="se på emneinformasjon" style="ellipse;whiteSpace=wrap;html=1;fillColor=#B9E0A5;" parent="1" vertex="1">
          <mxGeometry x="255" y="160" width="110" height="40" as="geometry" />
        </mxCell>
        <mxCell id="YFPhY8BhYTOKruBvBXty-11" value="se og komentere&amp;nbsp;&lt;br&gt;studentsarbeid" style="ellipse;whiteSpace=wrap;html=1;fillColor=#FFFF33;" parent="1" vertex="1">
          <mxGeometry x="470" y="270" width="120" height="50" as="geometry" />
        </mxCell>
        <mxCell id="YFPhY8BhYTOKruBvBXty-12" value="Oppgjør&lt;br&gt;Arbeidskrav" style="ellipse;whiteSpace=wrap;html=1;fillColor=#B9E0A5;" parent="1" vertex="1">
          <mxGeometry x="250" y="220" width="130" height="40" as="geometry" />
        </mxCell>
        <mxCell id="YFPhY8BhYTOKruBvBXty-13" value="Se på pensum" style="ellipse;whiteSpace=wrap;html=1;fillColor=#B9E0A5;" parent="1" vertex="1">
          <mxGeometry x="250" y="280" width="120" height="40" as="geometry" />
        </mxCell>
        <mxCell id="YFPhY8BhYTOKruBvBXty-14" value="Sjekke&amp;nbsp;&lt;br&gt;Øvingsoppgaver" style="ellipse;whiteSpace=wrap;html=1;fillColor=#B9E0A5;" parent="1" vertex="1">
          <mxGeometry x="255" y="340" width="115" height="40" as="geometry" />
        </mxCell>
        <mxCell id="YFPhY8BhYTOKruBvBXty-15" value="Se på&lt;br&gt;Undervisningsplan" style="ellipse;whiteSpace=wrap;html=1;fillColor=#B9E0A5;" parent="1" vertex="1">
          <mxGeometry x="255" y="400" width="115" height="40" as="geometry" />
        </mxCell>
        <mxCell id="YFPhY8BhYTOKruBvBXty-16" value="Legge inn og oppdatere&lt;br&gt;emneinformasjon" style="ellipse;whiteSpace=wrap;html=1;fillColor=#FFCE9F;" parent="1" vertex="1">
          <mxGeometry x="250" y="460" width="140" height="50" as="geometry" />
        </mxCell>
        <mxCell id="YFPhY8BhYTOKruBvBXty-17" value="Laste opp og vurdere arbeidkrav" style="ellipse;whiteSpace=wrap;html=1;fillColor=#FFCE9F;" parent="1" vertex="1">
          <mxGeometry x="250" y="530" width="130" height="50" as="geometry" />
        </mxCell>
        <mxCell id="YFPhY8BhYTOKruBvBXty-18" value="Melde inn student&lt;br&gt;på emnet" style="ellipse;whiteSpace=wrap;html=1;fillColor=#FFCE9F;" parent="1" vertex="1">
          <mxGeometry x="260" y="600" width="140" height="50" as="geometry" />
        </mxCell>
        <mxCell id="YFPhY8BhYTOKruBvBXty-19" value="sende ut kunngjøring" style="ellipse;whiteSpace=wrap;html=1;fillColor=#FFCE9F;" parent="1" vertex="1">
          <mxGeometry x="260" y="660" width="130" height="50" as="geometry" />
        </mxCell>
        <mxCell id="YFPhY8BhYTOKruBvBXty-21" value="" style="endArrow=none;html=1;rounded=0;entryX=0;entryY=0.5;entryDx=0;entryDy=0;" parent="1" target="YFPhY8BhYTOKruBvBXty-9" edge="1">
          <mxGeometry width="50" height="50" relative="1" as="geometry">
            <mxPoint x="60" y="250" as="sourcePoint" />
            <mxPoint x="110" y="200" as="targetPoint" />
            <Array as="points">
              <mxPoint x="160" y="150" />
            </Array>
          </mxGeometry>
        </mxCell>
        <mxCell id="YFPhY8BhYTOKruBvBXty-22" value="" style="endArrow=none;html=1;rounded=0;entryX=0;entryY=0.5;entryDx=0;entryDy=0;" parent="1" target="YFPhY8BhYTOKruBvBXty-15" edge="1">
          <mxGeometry width="50" height="50" relative="1" as="geometry">
            <mxPoint x="60" y="250" as="sourcePoint" />
            <mxPoint x="290" y="145" as="targetPoint" />
            <Array as="points">
              <mxPoint x="150" y="420" />
            </Array>
          </mxGeometry>
        </mxCell>
        <mxCell id="YFPhY8BhYTOKruBvBXty-23" value="" style="endArrow=none;html=1;rounded=0;entryX=0;entryY=0.5;entryDx=0;entryDy=0;" parent="1" target="YFPhY8BhYTOKruBvBXty-14" edge="1">
          <mxGeometry width="50" height="50" relative="1" as="geometry">
            <mxPoint x="60" y="250" as="sourcePoint" />
            <mxPoint x="300" y="155" as="targetPoint" />
            <Array as="points">
              <mxPoint x="150" y="360" />
            </Array>
          </mxGeometry>
        </mxCell>
        <mxCell id="YFPhY8BhYTOKruBvBXty-24" value="" style="endArrow=none;html=1;rounded=0;entryX=0;entryY=0.5;entryDx=0;entryDy=0;" parent="1" target="YFPhY8BhYTOKruBvBXty-10" edge="1">
          <mxGeometry width="50" height="50" relative="1" as="geometry">
            <mxPoint x="60" y="250" as="sourcePoint" />
            <mxPoint x="310" y="165" as="targetPoint" />
            <Array as="points">
              <mxPoint x="150" y="200" />
            </Array>
          </mxGeometry>
        </mxCell>
        <mxCell id="YFPhY8BhYTOKruBvBXty-25" value="" style="endArrow=none;html=1;rounded=0;entryX=0;entryY=0.5;entryDx=0;entryDy=0;" parent="1" target="YFPhY8BhYTOKruBvBXty-12" edge="1">
          <mxGeometry width="50" height="50" relative="1" as="geometry">
            <mxPoint x="60" y="250" as="sourcePoint" />
            <mxPoint x="320" y="175" as="targetPoint" />
            <Array as="points">
              <mxPoint x="160" y="250" />
            </Array>
          </mxGeometry>
        </mxCell>
        <mxCell id="YFPhY8BhYTOKruBvBXty-26" value="" style="endArrow=none;html=1;rounded=0;entryX=0;entryY=0.5;entryDx=0;entryDy=0;" parent="1" target="YFPhY8BhYTOKruBvBXty-13" edge="1">
          <mxGeometry width="50" height="50" relative="1" as="geometry">
            <mxPoint x="60" y="250" as="sourcePoint" />
            <mxPoint x="330" y="185" as="targetPoint" />
            <Array as="points">
              <mxPoint x="160" y="300" />
            </Array>
          </mxGeometry>
        </mxCell>
        <mxCell id="YFPhY8BhYTOKruBvBXty-29" value="" style="endArrow=none;html=1;rounded=0;entryX=0.014;entryY=0.64;entryDx=0;entryDy=0;entryPerimeter=0;" parent="1" target="YFPhY8BhYTOKruBvBXty-16" edge="1">
          <mxGeometry width="50" height="50" relative="1" as="geometry">
            <mxPoint x="60" y="520" as="sourcePoint" />
            <mxPoint x="360" y="215" as="targetPoint" />
            <Array as="points">
              <mxPoint x="170" y="510" />
            </Array>
          </mxGeometry>
        </mxCell>
        <mxCell id="YFPhY8BhYTOKruBvBXty-30" value="" style="endArrow=none;html=1;rounded=0;entryX=0;entryY=0.5;entryDx=0;entryDy=0;" parent="1" target="YFPhY8BhYTOKruBvBXty-18" edge="1">
          <mxGeometry width="50" height="50" relative="1" as="geometry">
            <mxPoint x="60" y="520" as="sourcePoint" />
            <mxPoint x="370" y="225" as="targetPoint" />
            <Array as="points">
              <mxPoint x="190" y="610" />
            </Array>
          </mxGeometry>
        </mxCell>
        <mxCell id="YFPhY8BhYTOKruBvBXty-31" value="" style="endArrow=none;html=1;rounded=0;entryX=0;entryY=0.5;entryDx=0;entryDy=0;" parent="1" target="YFPhY8BhYTOKruBvBXty-17" edge="1">
          <mxGeometry width="50" height="50" relative="1" as="geometry">
            <mxPoint x="60" y="520" as="sourcePoint" />
            <mxPoint x="380" y="235" as="targetPoint" />
            <Array as="points">
              <mxPoint x="180" y="560" />
            </Array>
          </mxGeometry>
        </mxCell>
        <mxCell id="YFPhY8BhYTOKruBvBXty-32" value="" style="endArrow=none;html=1;rounded=0;exitX=1;exitY=0.3333333333333333;exitDx=0;exitDy=0;exitPerimeter=0;entryX=0;entryY=0.5;entryDx=0;entryDy=0;" parent="1" source="YFPhY8BhYTOKruBvBXty-3" target="YFPhY8BhYTOKruBvBXty-19" edge="1">
          <mxGeometry width="50" height="50" relative="1" as="geometry">
            <mxPoint x="170" y="360" as="sourcePoint" />
            <mxPoint x="390" y="245" as="targetPoint" />
            <Array as="points">
              <mxPoint x="170" y="640" />
            </Array>
          </mxGeometry>
        </mxCell>
        <mxCell id="YFPhY8BhYTOKruBvBXty-33" value="Admin" style="shape=umlActor;verticalLabelPosition=bottom;verticalAlign=top;html=1;outlineConnect=0;fillColor=#CCFFFF;" parent="1" vertex="1">
          <mxGeometry x="780" y="390" width="30" height="60" as="geometry" />
        </mxCell>
        <mxCell id="YFPhY8BhYTOKruBvBXty-34" value="" style="endArrow=none;html=1;rounded=0;entryX=1;entryY=0.5;entryDx=0;entryDy=0;exitX=0;exitY=0.3333333333333333;exitDx=0;exitDy=0;exitPerimeter=0;" parent="1" source="YFPhY8BhYTOKruBvBXty-33" target="YFPhY8BhYTOKruBvBXty-18" edge="1">
          <mxGeometry width="50" height="50" relative="1" as="geometry">
            <mxPoint x="70" y="530" as="sourcePoint" />
            <mxPoint x="262" y="502" as="targetPoint" />
            <Array as="points">
              <mxPoint x="550" y="580" />
            </Array>
          </mxGeometry>
        </mxCell>
        <mxCell id="YFPhY8BhYTOKruBvBXty-35" value="" style="endArrow=none;html=1;rounded=0;exitX=1;exitY=0.5;exitDx=0;exitDy=0;" parent="1" source="YFPhY8BhYTOKruBvBXty-19" target="YFPhY8BhYTOKruBvBXty-36" edge="1">
          <mxGeometry width="50" height="50" relative="1" as="geometry">
            <mxPoint x="390" y="440" as="sourcePoint" />
            <mxPoint x="760" y="660" as="targetPoint" />
            <Array as="points">
              <mxPoint x="600" y="670" />
            </Array>
          </mxGeometry>
        </mxCell>
        <mxCell id="YFPhY8BhYTOKruBvBXty-36" value="E-post system" style="shape=umlActor;verticalLabelPosition=bottom;verticalAlign=top;html=1;outlineConnect=0;" parent="1" vertex="1">
          <mxGeometry x="780" y="630" width="30" height="60" as="geometry" />
        </mxCell>
        <mxCell id="YFPhY8BhYTOKruBvBXty-38" value="" style="endArrow=none;html=1;rounded=0;exitX=1;exitY=0.5;exitDx=0;exitDy=0;" parent="1" source="YFPhY8BhYTOKruBvBXty-9" edge="1">
          <mxGeometry width="50" height="50" relative="1" as="geometry">
            <mxPoint x="730" y="170" as="sourcePoint" />
            <mxPoint x="780" y="120" as="targetPoint" />
          </mxGeometry>
        </mxCell>
        <mxCell id="YFPhY8BhYTOKruBvBXty-39" value="Actor" style="shape=umlActor;verticalLabelPosition=bottom;verticalAlign=top;html=1;outlineConnect=0;fillColor=#FFFF33;" parent="1" vertex="1">
          <mxGeometry x="780" y="300" width="30" height="60" as="geometry" />
        </mxCell>
        <mxCell id="YFPhY8BhYTOKruBvBXty-40" value="" style="endArrow=none;html=1;rounded=0;exitX=1;exitY=0.5;exitDx=0;exitDy=0;entryX=0;entryY=0.3333333333333333;entryDx=0;entryDy=0;entryPerimeter=0;" parent="1" source="YFPhY8BhYTOKruBvBXty-11" target="YFPhY8BhYTOKruBvBXty-39" edge="1">
          <mxGeometry width="50" height="50" relative="1" as="geometry">
            <mxPoint x="730" y="290" as="sourcePoint" />
            <mxPoint x="780" y="240" as="targetPoint" />
          </mxGeometry>
        </mxCell>
        <mxCell id="YFPhY8BhYTOKruBvBXty-41" value="" style="endArrow=none;html=1;rounded=0;exitX=1;exitY=0.5;exitDx=0;exitDy=0;entryX=0;entryY=0.5;entryDx=0;entryDy=0;" parent="1" source="YFPhY8BhYTOKruBvBXty-12" target="YFPhY8BhYTOKruBvBXty-11" edge="1">
          <mxGeometry width="50" height="50" relative="1" as="geometry">
            <mxPoint x="500" y="450" as="sourcePoint" />
            <mxPoint x="550" y="400" as="targetPoint" />
          </mxGeometry>
        </mxCell>
        <mxCell id="YFPhY8BhYTOKruBvBXty-45" value="Registere klasse emne" style="ellipse;whiteSpace=wrap;html=1;fillColor=#99FFFF;" parent="1" vertex="1">
          <mxGeometry x="470" y="410" width="120" height="60" as="geometry" />
        </mxCell>
        <mxCell id="YFPhY8BhYTOKruBvBXty-46" value="" style="endArrow=none;html=1;rounded=0;exitX=1;exitY=0.5;exitDx=0;exitDy=0;" parent="1" source="YFPhY8BhYTOKruBvBXty-45" edge="1">
          <mxGeometry width="50" height="50" relative="1" as="geometry">
            <mxPoint x="630" y="440" as="sourcePoint" />
            <mxPoint x="780" y="410" as="targetPoint" />
          </mxGeometry>
        </mxCell>
        <mxCell id="YFPhY8BhYTOKruBvBXty-48" value="&lt;font color=&quot;#faf5f5&quot;&gt;Utgjør som&amp;nbsp;&lt;br&gt;lærer/student&lt;br&gt;&lt;/font&gt;" style="ellipse;html=1;shape=endState;fillColor=#000000;strokeColor=#ff0000;" parent="1" vertex="1">
          <mxGeometry x="510" y="147.5" width="130" height="65" as="geometry" />
        </mxCell>
        <mxCell id="YFPhY8BhYTOKruBvBXty-49" value="" style="endArrow=none;html=1;rounded=0;entryX=0;entryY=0.5;entryDx=0;entryDy=0;exitX=1;exitY=1;exitDx=0;exitDy=0;" parent="1" source="YFPhY8BhYTOKruBvBXty-9" target="YFPhY8BhYTOKruBvBXty-48" edge="1">
          <mxGeometry width="50" height="50" relative="1" as="geometry">
            <mxPoint x="400" y="210" as="sourcePoint" />
            <mxPoint x="450" y="160" as="targetPoint" />
          </mxGeometry>
        </mxCell>
        <mxCell id="YFPhY8BhYTOKruBvBXty-50" value="" style="endArrow=none;html=1;rounded=0;exitX=0.942;exitY=0.685;exitDx=0;exitDy=0;exitPerimeter=0;entryX=0;entryY=0.3333333333333333;entryDx=0;entryDy=0;entryPerimeter=0;" parent="1" source="YFPhY8BhYTOKruBvBXty-48" target="YFPhY8BhYTOKruBvBXty-5" edge="1">
          <mxGeometry width="50" height="50" relative="1" as="geometry">
            <mxPoint x="660" y="260" as="sourcePoint" />
            <mxPoint x="710" y="210" as="targetPoint" />
          </mxGeometry>
        </mxCell>
      </root>
    </mxGraphModel>
  </diagram>
  <diagram id="_FdZNln4wgcyV7cRF0ar" name="Page-2">
    <mxGraphModel dx="1194" dy="650" grid="1" gridSize="10" guides="1" tooltips="1" connect="1" arrows="1" fold="1" page="1" pageScale="1" pageWidth="827" pageHeight="1169" math="0" shadow="0">
      <root>
        <mxCell id="0" />
        <mxCell id="1" parent="0" />
      </root>
    </mxGraphModel>
  </diagram>
</mxfile>
